<mxfile host="Electron" modified="2024-06-09T21:53:27.564Z" agent="Mozilla/5.0 (Macintosh; Intel Mac OS X 10_15_7) AppleWebKit/537.36 (KHTML, like Gecko) draw.io/24.2.5 Chrome/120.0.6099.109 Electron/28.1.0 Safari/537.36" etag="4SQzEVXLkEJ-eDMQw5rg" version="24.2.5" type="device">
  <diagram name="Page-1" id="1T1zCmf3ZdPiKd7e1Vw7">
    <mxGraphModel dx="2295" dy="958" grid="1" gridSize="10" guides="1" tooltips="1" connect="1" arrows="1" fold="1" page="1" pageScale="1" pageWidth="827" pageHeight="1169" math="0" shadow="0">
      <root>
        <mxCell id="0" />
        <mxCell id="1" parent="0" />
        <mxCell id="eKOeBK_ORoxZ002P18r7-4" value="AWS Cloud" style="sketch=0;outlineConnect=0;html=1;whiteSpace=wrap;fontSize=12;fontStyle=0;shape=mxgraph.aws4.group;grIcon=mxgraph.aws4.group_aws_cloud;verticalAlign=top;align=left;spacingLeft=30;dashed=0;" vertex="1" parent="1">
          <mxGeometry x="-52" y="130" width="930" height="820" as="geometry" />
        </mxCell>
        <mxCell id="eKOeBK_ORoxZ002P18r7-5" value="VPC" style="sketch=0;outlineConnect=0;gradientColor=none;html=1;whiteSpace=wrap;fontSize=12;fontStyle=0;shape=mxgraph.aws4.group;grIcon=mxgraph.aws4.group_vpc;strokeColor=#879196;fillColor=none;verticalAlign=top;align=left;spacingLeft=30;fontColor=#879196;dashed=0;" vertex="1" parent="1">
          <mxGeometry x="150" y="150" width="660" height="540" as="geometry" />
        </mxCell>
        <mxCell id="eKOeBK_ORoxZ002P18r7-6" value="" style="sketch=0;outlineConnect=0;fontColor=#232F3E;gradientColor=none;fillColor=#8C4FFF;strokeColor=none;dashed=0;verticalLabelPosition=bottom;verticalAlign=top;align=center;html=1;fontSize=12;fontStyle=0;aspect=fixed;pointerEvents=1;shape=mxgraph.aws4.internet_gateway;" vertex="1" parent="1">
          <mxGeometry x="117" y="382" width="58" height="58" as="geometry" />
        </mxCell>
        <mxCell id="eKOeBK_ORoxZ002P18r7-7" value="" style="rounded=1;arcSize=10;dashed=1;strokeColor=#F59D56;fillColor=none;gradientColor=none;dashPattern=8 4;strokeWidth=2;" vertex="1" parent="1">
          <mxGeometry x="187" y="170" width="600" height="220" as="geometry" />
        </mxCell>
        <mxCell id="eKOeBK_ORoxZ002P18r7-8" value="" style="rounded=1;arcSize=10;dashed=1;strokeColor=#F59D56;fillColor=none;gradientColor=none;dashPattern=8 4;strokeWidth=2;" vertex="1" parent="1">
          <mxGeometry x="175" y="440" width="615" height="229.5" as="geometry" />
        </mxCell>
        <mxCell id="eKOeBK_ORoxZ002P18r7-9" value="availiability zone (us-east-1a)&amp;nbsp;&amp;nbsp;" style="text;html=1;align=center;verticalAlign=middle;whiteSpace=wrap;rounded=0;" vertex="1" parent="1">
          <mxGeometry x="196" y="170" width="110" height="59.5" as="geometry" />
        </mxCell>
        <mxCell id="eKOeBK_ORoxZ002P18r7-10" value="availiability zone (us-east-1b)&amp;nbsp;&amp;nbsp;" style="text;html=1;align=center;verticalAlign=middle;whiteSpace=wrap;rounded=0;" vertex="1" parent="1">
          <mxGeometry x="187" y="434.25" width="110" height="59.5" as="geometry" />
        </mxCell>
        <mxCell id="eKOeBK_ORoxZ002P18r7-13" value="subnet 1 &lt;span style=&quot;color: rgb(22, 25, 31); font-family: &amp;quot;Amazon Ember&amp;quot;, &amp;quot;Helvetica Neue&amp;quot;, Roboto, Arial, sans-serif; font-size: 14px; background-color: rgb(255, 255, 255);&quot;&gt;10.0.1.0/24&lt;/span&gt;" style="sketch=0;outlineConnect=0;gradientColor=none;html=1;whiteSpace=wrap;fontSize=12;fontStyle=0;shape=mxgraph.aws4.group;grIcon=mxgraph.aws4.group_subnet;strokeColor=#879196;fillColor=none;verticalAlign=top;align=left;spacingLeft=30;fontColor=#879196;dashed=0;" vertex="1" parent="1">
          <mxGeometry x="379" y="185" width="251" height="190" as="geometry" />
        </mxCell>
        <mxCell id="eKOeBK_ORoxZ002P18r7-15" value="subnet 2&amp;nbsp;&lt;span style=&quot;color: rgb(22, 25, 31); font-family: &amp;quot;Amazon Ember&amp;quot;, &amp;quot;Helvetica Neue&amp;quot;, Roboto, Arial, sans-serif; font-size: 14px; background-color: rgb(255, 255, 255);&quot;&gt;10.0.2.0/24&lt;/span&gt;" style="sketch=0;outlineConnect=0;gradientColor=none;html=1;whiteSpace=wrap;fontSize=12;fontStyle=0;shape=mxgraph.aws4.group;grIcon=mxgraph.aws4.group_subnet;strokeColor=#879196;fillColor=none;verticalAlign=top;align=left;spacingLeft=30;fontColor=#879196;dashed=0;" vertex="1" parent="1">
          <mxGeometry x="364" y="454.75" width="262" height="190" as="geometry" />
        </mxCell>
        <mxCell id="eKOeBK_ORoxZ002P18r7-17" value="Auto Scaling group" style="points=[[0,0],[0.25,0],[0.5,0],[0.75,0],[1,0],[1,0.25],[1,0.5],[1,0.75],[1,1],[0.75,1],[0.5,1],[0.25,1],[0,1],[0,0.75],[0,0.5],[0,0.25]];outlineConnect=0;gradientColor=none;html=1;whiteSpace=wrap;fontSize=12;fontStyle=0;container=1;pointerEvents=0;collapsible=0;recursiveResize=0;shape=mxgraph.aws4.groupCenter;grIcon=mxgraph.aws4.group_auto_scaling_group;grStroke=1;strokeColor=#D86613;fillColor=none;verticalAlign=top;align=center;fontColor=#D86613;dashed=1;spacingTop=25;" vertex="1" parent="1">
          <mxGeometry x="390" y="210" width="220" height="420" as="geometry" />
        </mxCell>
        <mxCell id="eKOeBK_ORoxZ002P18r7-42" value="" style="rounded=1;arcSize=10;dashed=1;strokeColor=#ff0000;fillColor=none;gradientColor=none;dashPattern=8 4;strokeWidth=2;" vertex="1" parent="eKOeBK_ORoxZ002P18r7-17">
          <mxGeometry x="30" y="55" width="150" height="350" as="geometry" />
        </mxCell>
        <mxCell id="eKOeBK_ORoxZ002P18r7-19" value="" style="outlineConnect=0;dashed=0;verticalLabelPosition=bottom;verticalAlign=top;align=center;html=1;shape=mxgraph.aws3.ec2;fillColor=#F58534;gradientColor=none;" vertex="1" parent="eKOeBK_ORoxZ002P18r7-17">
          <mxGeometry x="50" y="85" width="47.5" height="52" as="geometry" />
        </mxCell>
        <mxCell id="eKOeBK_ORoxZ002P18r7-20" value="" style="outlineConnect=0;dashed=0;verticalLabelPosition=bottom;verticalAlign=top;align=center;html=1;shape=mxgraph.aws3.ec2;fillColor=#F58534;gradientColor=none;" vertex="1" parent="eKOeBK_ORoxZ002P18r7-17">
          <mxGeometry x="78.78" y="310" width="52.44" height="60" as="geometry" />
        </mxCell>
        <mxCell id="eKOeBK_ORoxZ002P18r7-22" value="t2.small" style="text;html=1;align=center;verticalAlign=middle;whiteSpace=wrap;rounded=0;" vertex="1" parent="eKOeBK_ORoxZ002P18r7-17">
          <mxGeometry x="73.81" y="280" width="60" height="30" as="geometry" />
        </mxCell>
        <mxCell id="eKOeBK_ORoxZ002P18r7-21" value="t2.small" style="text;html=1;align=center;verticalAlign=middle;whiteSpace=wrap;rounded=0;" vertex="1" parent="eKOeBK_ORoxZ002P18r7-17">
          <mxGeometry x="75" y="55" width="60" height="30" as="geometry" />
        </mxCell>
        <mxCell id="eKOeBK_ORoxZ002P18r7-47" value="" style="rounded=1;arcSize=10;dashed=1;strokeColor=#ff0000;fillColor=none;gradientColor=none;dashPattern=8 4;strokeWidth=2;" vertex="1" parent="eKOeBK_ORoxZ002P18r7-17">
          <mxGeometry x="-30" y="160" width="294" height="90" as="geometry" />
        </mxCell>
        <mxCell id="eKOeBK_ORoxZ002P18r7-18" value="" style="outlineConnect=0;dashed=0;verticalLabelPosition=bottom;verticalAlign=top;align=center;html=1;shape=mxgraph.aws3.auto_scaling;fillColor=#F58534;gradientColor=none;" vertex="1" parent="eKOeBK_ORoxZ002P18r7-17">
          <mxGeometry x="83.81" y="181.75" width="50" height="46.5" as="geometry" />
        </mxCell>
        <mxCell id="eKOeBK_ORoxZ002P18r7-55" value="&lt;font style=&quot;font-size: 8px;&quot;&gt;Target SG&lt;/font&gt;" style="text;html=1;align=center;verticalAlign=middle;whiteSpace=wrap;rounded=0;rotation=90;" vertex="1" parent="eKOeBK_ORoxZ002P18r7-17">
          <mxGeometry x="159" y="79" width="60" height="28" as="geometry" />
        </mxCell>
        <mxCell id="eKOeBK_ORoxZ002P18r7-56" style="edgeStyle=orthogonalEdgeStyle;rounded=0;orthogonalLoop=1;jettySize=auto;html=1;" edge="1" parent="eKOeBK_ORoxZ002P18r7-17" source="eKOeBK_ORoxZ002P18r7-47" target="eKOeBK_ORoxZ002P18r7-47">
          <mxGeometry relative="1" as="geometry" />
        </mxCell>
        <mxCell id="eKOeBK_ORoxZ002P18r7-71" value="" style="outlineConnect=0;dashed=0;verticalLabelPosition=bottom;verticalAlign=top;align=center;html=1;shape=mxgraph.aws3.ec2;fillColor=#B3B3B3;gradientColor=none;" vertex="1" parent="eKOeBK_ORoxZ002P18r7-17">
          <mxGeometry x="111.5" y="85" width="47.5" height="52" as="geometry" />
        </mxCell>
        <mxCell id="eKOeBK_ORoxZ002P18r7-75" value="" style="verticalLabelPosition=bottom;html=1;verticalAlign=top;align=center;strokeColor=none;fillColor=#00BEF2;shape=mxgraph.azure.script_file;pointerEvents=1;" vertex="1" parent="eKOeBK_ORoxZ002P18r7-17">
          <mxGeometry x="105.03" y="355" width="20" height="20" as="geometry" />
        </mxCell>
        <mxCell id="eKOeBK_ORoxZ002P18r7-76" value="&lt;font style=&quot;font-size: 8px;&quot;&gt;userdata&amp;nbsp;&lt;/font&gt;&lt;span style=&quot;font-size: 8px; background-color: initial;&quot;&gt;script&lt;/span&gt;" style="text;html=1;align=center;verticalAlign=middle;whiteSpace=wrap;rounded=0;" vertex="1" parent="eKOeBK_ORoxZ002P18r7-17">
          <mxGeometry x="83.81" y="363" width="71.22" height="30" as="geometry" />
        </mxCell>
        <mxCell id="eKOeBK_ORoxZ002P18r7-79" value="" style="verticalLabelPosition=bottom;html=1;verticalAlign=top;align=center;strokeColor=none;fillColor=#00BEF2;shape=mxgraph.azure.script_file;pointerEvents=1;" vertex="1" parent="eKOeBK_ORoxZ002P18r7-17">
          <mxGeometry x="47.5" y="122" width="20" height="20" as="geometry" />
        </mxCell>
        <mxCell id="eKOeBK_ORoxZ002P18r7-80" value="&lt;font style=&quot;font-size: 8px;&quot;&gt;userdata&amp;nbsp;&lt;/font&gt;&lt;span style=&quot;font-size: 8px; background-color: initial;&quot;&gt;script&lt;/span&gt;" style="text;html=1;align=center;verticalAlign=middle;whiteSpace=wrap;rounded=0;" vertex="1" parent="eKOeBK_ORoxZ002P18r7-17">
          <mxGeometry x="26.279999999999973" y="130" width="71.22" height="30" as="geometry" />
        </mxCell>
        <mxCell id="eKOeBK_ORoxZ002P18r7-81" value="" style="verticalLabelPosition=bottom;html=1;verticalAlign=top;align=center;strokeColor=none;fillColor=#00BEF2;shape=mxgraph.azure.script_file;pointerEvents=1;" vertex="1" parent="eKOeBK_ORoxZ002P18r7-17">
          <mxGeometry x="131.22000000000003" y="122" width="20" height="20" as="geometry" />
        </mxCell>
        <mxCell id="eKOeBK_ORoxZ002P18r7-82" value="&lt;font style=&quot;font-size: 8px;&quot;&gt;userdata&amp;nbsp;&lt;/font&gt;&lt;span style=&quot;font-size: 8px; background-color: initial;&quot;&gt;script&lt;/span&gt;" style="text;html=1;align=center;verticalAlign=middle;whiteSpace=wrap;rounded=0;" vertex="1" parent="eKOeBK_ORoxZ002P18r7-17">
          <mxGeometry x="110" y="130" width="71.22" height="30" as="geometry" />
        </mxCell>
        <mxCell id="eKOeBK_ORoxZ002P18r7-23" value="" style="outlineConnect=0;dashed=0;verticalLabelPosition=bottom;verticalAlign=top;align=center;html=1;shape=mxgraph.aws3.internet_2;fillColor=#D2D3D3;gradientColor=none;" vertex="1" parent="1">
          <mxGeometry x="-200" y="490" width="79.5" height="54" as="geometry" />
        </mxCell>
        <mxCell id="eKOeBK_ORoxZ002P18r7-24" value="" style="sketch=0;points=[[0,0,0],[0.25,0,0],[0.5,0,0],[0.75,0,0],[1,0,0],[0,1,0],[0.25,1,0],[0.5,1,0],[0.75,1,0],[1,1,0],[0,0.25,0],[0,0.5,0],[0,0.75,0],[1,0.25,0],[1,0.5,0],[1,0.75,0]];outlineConnect=0;fontColor=#232F3E;fillColor=#8C4FFF;strokeColor=#ffffff;dashed=0;verticalLabelPosition=bottom;verticalAlign=top;align=center;html=1;fontSize=12;fontStyle=0;aspect=fixed;shape=mxgraph.aws4.resourceIcon;resIcon=mxgraph.aws4.route_53;" vertex="1" parent="1">
          <mxGeometry x="40" y="295" width="68" height="68" as="geometry" />
        </mxCell>
        <mxCell id="eKOeBK_ORoxZ002P18r7-25" value="api-challenge.techwithmarkus.com" style="text;html=1;align=center;verticalAlign=middle;whiteSpace=wrap;rounded=0;" vertex="1" parent="1">
          <mxGeometry x="-25" y="360" width="200" height="30" as="geometry" />
        </mxCell>
        <mxCell id="eKOeBK_ORoxZ002P18r7-26" value="" style="edgeStyle=segmentEdgeStyle;endArrow=classic;html=1;curved=0;rounded=0;endSize=8;startSize=8;entryX=0.374;entryY=0.556;entryDx=0;entryDy=0;entryPerimeter=0;" edge="1" parent="1" target="eKOeBK_ORoxZ002P18r7-47">
          <mxGeometry width="50" height="50" relative="1" as="geometry">
            <mxPoint x="80" y="371" as="sourcePoint" />
            <mxPoint x="320" y="410" as="targetPoint" />
            <Array as="points">
              <mxPoint x="80" y="392" />
              <mxPoint x="150" y="392" />
              <mxPoint x="150" y="415" />
              <mxPoint x="450" y="415" />
              <mxPoint x="450" y="420" />
            </Array>
          </mxGeometry>
        </mxCell>
        <mxCell id="eKOeBK_ORoxZ002P18r7-28" value="" style="shape=actor;whiteSpace=wrap;html=1;" vertex="1" parent="1">
          <mxGeometry x="-220" y="640" width="40" height="60" as="geometry" />
        </mxCell>
        <mxCell id="eKOeBK_ORoxZ002P18r7-29" value="" style="sketch=0;points=[[0,0,0],[0.25,0,0],[0.5,0,0],[0.75,0,0],[1,0,0],[0,1,0],[0.25,1,0],[0.5,1,0],[0.75,1,0],[1,1,0],[0,0.25,0],[0,0.5,0],[0,0.75,0],[1,0.25,0],[1,0.5,0],[1,0.75,0]];outlineConnect=0;fontColor=#232F3E;fillColor=#8C4FFF;strokeColor=#ffffff;dashed=0;verticalLabelPosition=bottom;verticalAlign=top;align=center;html=1;fontSize=12;fontStyle=0;aspect=fixed;shape=mxgraph.aws4.resourceIcon;resIcon=mxgraph.aws4.route_53;" vertex="1" parent="1">
          <mxGeometry x="37.5" y="742" width="68" height="68" as="geometry" />
        </mxCell>
        <mxCell id="eKOeBK_ORoxZ002P18r7-30" value="challenge.techwithmarkus.com" style="text;html=1;align=center;verticalAlign=middle;whiteSpace=wrap;rounded=0;" vertex="1" parent="1">
          <mxGeometry x="-20" y="810" width="200" height="30" as="geometry" />
        </mxCell>
        <mxCell id="eKOeBK_ORoxZ002P18r7-31" value="" style="sketch=0;points=[[0,0,0],[0.25,0,0],[0.5,0,0],[0.75,0,0],[1,0,0],[0,1,0],[0.25,1,0],[0.5,1,0],[0.75,1,0],[1,1,0],[0,0.25,0],[0,0.5,0],[0,0.75,0],[1,0.25,0],[1,0.5,0],[1,0.75,0]];outlineConnect=0;fontColor=#232F3E;fillColor=#8C4FFF;strokeColor=#ffffff;dashed=0;verticalLabelPosition=bottom;verticalAlign=top;align=center;html=1;fontSize=12;fontStyle=0;aspect=fixed;shape=mxgraph.aws4.resourceIcon;resIcon=mxgraph.aws4.cloudfront;" vertex="1" parent="1">
          <mxGeometry x="306" y="830" width="70" height="70" as="geometry" />
        </mxCell>
        <mxCell id="eKOeBK_ORoxZ002P18r7-32" value="" style="sketch=0;points=[[0,0,0],[0.25,0,0],[0.5,0,0],[0.75,0,0],[1,0,0],[0,1,0],[0.25,1,0],[0.5,1,0],[0.75,1,0],[1,1,0],[0,0.25,0],[0,0.5,0],[0,0.75,0],[1,0.25,0],[1,0.5,0],[1,0.75,0]];outlineConnect=0;fontColor=#232F3E;fillColor=#DD344C;strokeColor=#ffffff;dashed=0;verticalLabelPosition=bottom;verticalAlign=top;align=center;html=1;fontSize=12;fontStyle=0;aspect=fixed;shape=mxgraph.aws4.resourceIcon;resIcon=mxgraph.aws4.certificate_manager_3;" vertex="1" parent="1">
          <mxGeometry x="307" y="700" width="68" height="68" as="geometry" />
        </mxCell>
        <mxCell id="eKOeBK_ORoxZ002P18r7-33" value="" style="endArrow=classic;startArrow=classic;html=1;rounded=0;entryX=0;entryY=0.5;entryDx=0;entryDy=0;entryPerimeter=0;exitX=0.817;exitY=0.914;exitDx=0;exitDy=0;exitPerimeter=0;" edge="1" parent="1" source="eKOeBK_ORoxZ002P18r7-74" target="eKOeBK_ORoxZ002P18r7-31">
          <mxGeometry width="50" height="50" relative="1" as="geometry">
            <mxPoint x="117" y="705" as="sourcePoint" />
            <mxPoint x="175" y="780" as="targetPoint" />
          </mxGeometry>
        </mxCell>
        <mxCell id="eKOeBK_ORoxZ002P18r7-34" value="" style="endArrow=classic;startArrow=classic;html=1;rounded=0;exitX=1;exitY=0.75;exitDx=0;exitDy=0;exitPerimeter=0;entryX=0;entryY=0.5;entryDx=0;entryDy=0;entryPerimeter=0;" edge="1" parent="1" target="eKOeBK_ORoxZ002P18r7-32">
          <mxGeometry width="50" height="50" relative="1" as="geometry">
            <mxPoint x="119" y="768" as="sourcePoint" />
            <mxPoint x="311" y="840" as="targetPoint" />
          </mxGeometry>
        </mxCell>
        <mxCell id="eKOeBK_ORoxZ002P18r7-35" value="cert for challenge.techwithmarkus.com" style="text;html=1;align=center;verticalAlign=middle;whiteSpace=wrap;rounded=0;" vertex="1" parent="1">
          <mxGeometry x="311" y="768" width="69" height="30" as="geometry" />
        </mxCell>
        <mxCell id="eKOeBK_ORoxZ002P18r7-36" value="Cloudfront&lt;div&gt;CDN&lt;/div&gt;" style="text;html=1;align=center;verticalAlign=middle;whiteSpace=wrap;rounded=0;" vertex="1" parent="1">
          <mxGeometry x="310.5" y="910" width="69" height="30" as="geometry" />
        </mxCell>
        <mxCell id="eKOeBK_ORoxZ002P18r7-37" value="" style="sketch=0;points=[[0,0,0],[0.25,0,0],[0.5,0,0],[0.75,0,0],[1,0,0],[0,1,0],[0.25,1,0],[0.5,1,0],[0.75,1,0],[1,1,0],[0,0.25,0],[0,0.5,0],[0,0.75,0],[1,0.25,0],[1,0.5,0],[1,0.75,0]];outlineConnect=0;fontColor=#232F3E;fillColor=#7AA116;strokeColor=#ffffff;dashed=0;verticalLabelPosition=bottom;verticalAlign=top;align=center;html=1;fontSize=12;fontStyle=0;aspect=fixed;shape=mxgraph.aws4.resourceIcon;resIcon=mxgraph.aws4.s3;" vertex="1" parent="1">
          <mxGeometry x="590" y="760" width="70" height="70" as="geometry" />
        </mxCell>
        <mxCell id="eKOeBK_ORoxZ002P18r7-38" value="" style="endArrow=classic;startArrow=classic;html=1;rounded=0;exitX=0.482;exitY=0.871;exitDx=0;exitDy=0;exitPerimeter=0;" edge="1" parent="1" source="eKOeBK_ORoxZ002P18r7-4">
          <mxGeometry width="50" height="50" relative="1" as="geometry">
            <mxPoint x="450" y="500" as="sourcePoint" />
            <mxPoint x="580" y="800" as="targetPoint" />
            <Array as="points">
              <mxPoint x="580" y="800" />
            </Array>
          </mxGeometry>
        </mxCell>
        <mxCell id="eKOeBK_ORoxZ002P18r7-39" value="Client&amp;nbsp;&lt;div&gt;Static Endpoint&lt;/div&gt;" style="text;html=1;align=center;verticalAlign=middle;whiteSpace=wrap;rounded=0;" vertex="1" parent="1">
          <mxGeometry x="580.5" y="840" width="89" height="30" as="geometry" />
        </mxCell>
        <mxCell id="eKOeBK_ORoxZ002P18r7-40" value="Req. for TLS cert" style="text;html=1;align=center;verticalAlign=middle;whiteSpace=wrap;rounded=0;rotation=-15;" vertex="1" parent="1">
          <mxGeometry x="160" y="719" width="105" height="30" as="geometry" />
        </mxCell>
        <mxCell id="eKOeBK_ORoxZ002P18r7-41" value="" style="endArrow=classic;startArrow=classic;html=1;rounded=0;exitX=0.5;exitY=0;exitDx=0;exitDy=0;exitPerimeter=0;entryX=0.5;entryY=1;entryDx=0;entryDy=0;" edge="1" parent="1" source="eKOeBK_ORoxZ002P18r7-31" target="eKOeBK_ORoxZ002P18r7-35">
          <mxGeometry width="50" height="50" relative="1" as="geometry">
            <mxPoint x="450" y="570" as="sourcePoint" />
            <mxPoint x="500" y="520" as="targetPoint" />
          </mxGeometry>
        </mxCell>
        <mxCell id="eKOeBK_ORoxZ002P18r7-44" value="" style="endArrow=classic;startArrow=classic;html=1;rounded=0;entryX=0;entryY=0.5;entryDx=0;entryDy=0;entryPerimeter=0;exitX=0.5;exitY=0;exitDx=0;exitDy=0;" edge="1" parent="1" source="eKOeBK_ORoxZ002P18r7-25" target="eKOeBK_ORoxZ002P18r7-31">
          <mxGeometry width="50" height="50" relative="1" as="geometry">
            <mxPoint x="450" y="560" as="sourcePoint" />
            <mxPoint x="500" y="510" as="targetPoint" />
            <Array as="points">
              <mxPoint x="74" y="865" />
            </Array>
          </mxGeometry>
        </mxCell>
        <mxCell id="eKOeBK_ORoxZ002P18r7-54" value="&lt;font style=&quot;font-size: 8px;&quot;&gt;LB SG&lt;/font&gt;" style="text;html=1;align=center;verticalAlign=middle;whiteSpace=wrap;rounded=0;" vertex="1" parent="1">
          <mxGeometry x="330" y="348" width="60" height="30" as="geometry" />
        </mxCell>
        <mxCell id="eKOeBK_ORoxZ002P18r7-57" value="" style="endArrow=classic;startArrow=classic;html=1;rounded=0;exitX=1.096;exitY=0.992;exitDx=0;exitDy=0;exitPerimeter=0;" edge="1" parent="1" source="eKOeBK_ORoxZ002P18r7-28" target="eKOeBK_ORoxZ002P18r7-29">
          <mxGeometry width="50" height="50" relative="1" as="geometry">
            <mxPoint x="-90" y="810" as="sourcePoint" />
            <mxPoint x="270" y="660" as="targetPoint" />
          </mxGeometry>
        </mxCell>
        <mxCell id="eKOeBK_ORoxZ002P18r7-58" value="" style="sketch=0;points=[[0,0,0],[0.25,0,0],[0.5,0,0],[0.75,0,0],[1,0,0],[0,1,0],[0.25,1,0],[0.5,1,0],[0.75,1,0],[1,1,0],[0,0.25,0],[0,0.5,0],[0,0.75,0],[1,0.25,0],[1,0.5,0],[1,0.75,0]];outlineConnect=0;fontColor=#232F3E;fillColor=#DD344C;strokeColor=#ffffff;dashed=0;verticalLabelPosition=bottom;verticalAlign=top;align=center;html=1;fontSize=12;fontStyle=0;aspect=fixed;shape=mxgraph.aws4.resourceIcon;resIcon=mxgraph.aws4.certificate_manager_3;" vertex="1" parent="1">
          <mxGeometry x="37.5" y="160" width="68" height="68" as="geometry" />
        </mxCell>
        <mxCell id="eKOeBK_ORoxZ002P18r7-59" value="cert for&amp;nbsp;&lt;div&gt;api-challenge.techwithmarkus.com&lt;/div&gt;" style="text;html=1;align=center;verticalAlign=middle;whiteSpace=wrap;rounded=0;" vertex="1" parent="1">
          <mxGeometry x="-36.25" y="229.5" width="220.5" height="30" as="geometry" />
        </mxCell>
        <mxCell id="eKOeBK_ORoxZ002P18r7-60" value="" style="endArrow=classic;startArrow=classic;html=1;rounded=0;exitX=0.5;exitY=0;exitDx=0;exitDy=0;exitPerimeter=0;" edge="1" parent="1" source="eKOeBK_ORoxZ002P18r7-24" target="eKOeBK_ORoxZ002P18r7-59">
          <mxGeometry width="50" height="50" relative="1" as="geometry">
            <mxPoint x="160" y="390" as="sourcePoint" />
            <mxPoint x="210" y="340" as="targetPoint" />
          </mxGeometry>
        </mxCell>
        <mxCell id="eKOeBK_ORoxZ002P18r7-74" value="techwithmarkus.com" style="fillColor=none;strokeColor=#DD3522;verticalAlign=top;fontStyle=0;fontColor=#DD3522;whiteSpace=wrap;html=1;" vertex="1" parent="1">
          <mxGeometry x="27" y="264.75" width="90" height="580" as="geometry" />
        </mxCell>
        <mxCell id="eKOeBK_ORoxZ002P18r7-84" value="" style="image;sketch=0;aspect=fixed;html=1;points=[];align=center;fontSize=12;image=img/lib/mscae/Docker.svg;labelBackgroundColor=default;strokeWidth=3;" vertex="1" parent="1">
          <mxGeometry x="-234.4" y="170" width="134.15" height="110" as="geometry" />
        </mxCell>
        <mxCell id="eKOeBK_ORoxZ002P18r7-85" value="&lt;font color=&quot;#808080&quot; style=&quot;font-size: 34px;&quot;&gt;Hub&lt;/font&gt;" style="text;html=1;align=center;verticalAlign=middle;whiteSpace=wrap;rounded=0;" vertex="1" parent="1">
          <mxGeometry x="-227.2" y="264.75" width="119.75" height="65" as="geometry" />
        </mxCell>
        <mxCell id="eKOeBK_ORoxZ002P18r7-86" value="" style="endArrow=classic;html=1;rounded=0;entryX=0;entryY=0.5;entryDx=0;entryDy=0;entryPerimeter=0;" edge="1" parent="1" source="eKOeBK_ORoxZ002P18r7-85" target="eKOeBK_ORoxZ002P18r7-20">
          <mxGeometry width="50" height="50" relative="1" as="geometry">
            <mxPoint x="260" y="520" as="sourcePoint" />
            <mxPoint x="310" y="470" as="targetPoint" />
          </mxGeometry>
        </mxCell>
        <mxCell id="eKOeBK_ORoxZ002P18r7-87" value="" style="endArrow=classic;html=1;rounded=0;entryX=0;entryY=0.5;entryDx=0;entryDy=0;entryPerimeter=0;" edge="1" parent="1" source="eKOeBK_ORoxZ002P18r7-85" target="eKOeBK_ORoxZ002P18r7-19">
          <mxGeometry width="50" height="50" relative="1" as="geometry">
            <mxPoint x="-90" y="348" as="sourcePoint" />
            <mxPoint x="479" y="560" as="targetPoint" />
          </mxGeometry>
        </mxCell>
        <mxCell id="eKOeBK_ORoxZ002P18r7-88" value="" style="endArrow=classic;html=1;rounded=0;" edge="1" parent="1" target="eKOeBK_ORoxZ002P18r7-71">
          <mxGeometry width="50" height="50" relative="1" as="geometry">
            <mxPoint x="-90" y="280" as="sourcePoint" />
            <mxPoint x="450" y="331" as="targetPoint" />
          </mxGeometry>
        </mxCell>
        <mxCell id="eKOeBK_ORoxZ002P18r7-89" value="&lt;span style=&quot;color: rgb(57, 63, 73); font-family: &amp;quot;Roboto Mono&amp;quot;; font-size: 14px; letter-spacing: 0.28px; text-align: start; white-space-collapse: break-spaces; background-color: rgb(225, 226, 230);&quot;&gt;mannuk24/challenge:latest&lt;/span&gt;-" style="text;html=1;align=center;verticalAlign=middle;whiteSpace=wrap;rounded=0;" vertex="1" parent="1">
          <mxGeometry x="-180" y="318" width="60" height="30" as="geometry" />
        </mxCell>
        <mxCell id="eKOeBK_ORoxZ002P18r7-91" value="&lt;font style=&quot;font-size: 11px;&quot;&gt;&lt;span style=&quot;color: rgb(57, 63, 73); font-family: &amp;quot;Roboto Mono&amp;quot;; letter-spacing: 0.28px; text-align: start; white-space-collapse: break-spaces; background-color: rgb(225, 226, 230);&quot;&gt;mannuk24/challenge:latest&lt;/span&gt;-&lt;/font&gt;" style="text;html=1;align=center;verticalAlign=middle;whiteSpace=wrap;rounded=0;rotation=5;" vertex="1" parent="1">
          <mxGeometry x="265" y="280" width="35" height="20" as="geometry" />
        </mxCell>
        <mxCell id="eKOeBK_ORoxZ002P18r7-94" value="&lt;font style=&quot;font-size: 11px;&quot;&gt;&lt;span style=&quot;color: rgb(57, 63, 73); font-family: &amp;quot;Roboto Mono&amp;quot;; letter-spacing: 0.28px; text-align: start; white-space-collapse: break-spaces; background-color: rgb(225, 226, 230);&quot;&gt;mannuk24/challenge:latest&lt;/span&gt;-&lt;/font&gt;" style="text;html=1;align=center;verticalAlign=middle;whiteSpace=wrap;rounded=0;rotation=22;" vertex="1" parent="1">
          <mxGeometry x="306" y="507" width="35" height="20" as="geometry" />
        </mxCell>
      </root>
    </mxGraphModel>
  </diagram>
</mxfile>
